# xmcd
#
# Track frame offsets:
# 150
# 14208
# 36055
# 50119
# 66769
# 83393
# 102852
# 118855
# 144286
# 166229
# 184447
# 201129
# 215456
#
# Disc length: 3126 seconds
#
# Revision: 0
# Processed by: cddbd v1.4PL0 Copyright (c) Steve Scherf et al.
# Submitted via: Axialis_AX_CDPlayer 2.6
#
DISCID=b90c340d
DTITLE=Kimmie Rhodes - West Texas Heaven
DYEAR=1900
DGENRE=
TTITLE0=West Texas Heaven
TTITLE1=Hard Promises To Keep
TTITLE2=Wild Roses
TTITLE3=Just To Be Near You
TTITLE4=Maybe We'll Just Disappear
TTITLE5=Be Mine
TTITLE6=Git You A Job
TTITLE7=I Never Heard You Say
TTITLE8=The Corner Of The Bar
TTITLE9=Home John
TTITLE10=I'm Gonna Fly
TTITLE11=Les Roses Sauvages
TTITLE12=I'm Not An Angel
EXTD=
EXTT0=
EXTT1=
EXTT2=
EXTT3=
EXTT4=
EXTT5=
EXTT6=
EXTT7=
EXTT8=
EXTT9=
EXTT10=
EXTT11=
EXTT12=
PLAYORDER=
